<?xml version="1.0" encoding="utf-8"?>
<!-- Generator: Adobe Illustrator 16.0.0, SVG Export Plug-In . SVG Version: 6.00 Build 0)  -->
<!DOCTYPE svg PUBLIC "-//W3C//DTD SVG 1.1//EN" "http://www.w3.org/Graphics/SVG/1.1/DTD/svg11.dtd">
<svg version="1.1" id="Capa_1" xmlns="http://www.w3.org/2000/svg" xmlns:xlink="http://www.w3.org/1999/xlink" x="0px" y="0px"
	 width="40.138px" height="35.295px" viewBox="9 17.411 40.138 35.295" enable-background="new 9 17.411 40.138 35.295"
	 xml:space="preserve">
<g enable-background="new    ">
	<path fill="#FFFFFF" d="M37.862,36.295h11.275v13.479c-1.209,1.009-2.657,1.743-4.341,2.203c-1.685,0.461-3.348,0.691-4.99,0.691
		c-1.93,0-3.723-0.304-5.378-0.908c-1.657-0.604-3.089-1.548-4.299-2.829c-1.209-1.281-2.16-2.916-2.851-4.903
		c-0.691-1.987-1.037-4.349-1.037-7.085c0-2.852,0.41-5.277,1.231-7.28c0.821-2.001,1.9-3.628,3.24-4.881s2.844-2.161,4.514-2.722
		c1.67-0.562,3.37-0.842,5.098-0.842c1.728,0,3.247,0.129,4.558,0.389s2.354,0.533,3.132,0.821l-1.21,4.968
		c-0.72-0.288-1.526-0.511-2.419-0.669s-2.031-0.237-3.413-0.237c-1.239,0-2.376,0.187-3.413,0.562
		c-1.037,0.375-1.938,0.987-2.7,1.836c-0.763,0.85-1.354,1.938-1.771,3.262c-0.417,1.325-0.626,2.938-0.626,4.838
		c0,1.814,0.201,3.376,0.605,4.687c0.403,1.313,0.964,2.392,1.685,3.24c0.72,0.85,1.563,1.477,2.527,1.879
		c0.965,0.404,1.994,0.605,3.089,0.605c0.749,0,1.483-0.094,2.203-0.281c0.719-0.188,1.324-0.468,1.814-0.843v-5.702l-6.523-0.69
		V36.295z"/>
</g>
<rect x="9" y="17.411" fill="#FE4918" width="10.8" height="35.295"/>
</svg>
